<mxfile host="app.diagrams.net" modified="2024-07-22T14:49:21.092Z" agent="Mozilla/5.0 (Macintosh; Intel Mac OS X 10_15_7) AppleWebKit/537.36 (KHTML, like Gecko) Chrome/126.0.0.0 Safari/537.36" version="24.7.1" etag="ZKWBHGdVMs4Qu-O_Nvut" type="github">
  <diagram name="Page-1" id="JqRtlotmOD39_I48jR2L">
    <mxGraphModel>
      <root>
        <mxCell id="0" />
        <mxCell id="1" parent="0" />
      </root>
    </mxGraphModel>
  </diagram>
</mxfile>
